# xmcd CD database file
#
# Track frame offsets:
#	150
#	16763
#	36045
#	56220
#	73020
#	86558
#	103264
#	120947
#	133960
#	144966
#	162066
#	184941
#	197804
#	212484
#	255009
#
# Disc length: 3904 seconds
#
# Revision: 0
# Processed by: cddbd v1.5.2PL0 Copyright (c) Steve Scherf et al.
# Submitted via: CDex 1.51
#
DISCID=ca0f3e0f
DTITLE=小確幸日記 - 晴空下的漫步
DYEAR=1900
DGENRE=New Age
TTITLE0=皮爾金組曲 晨歌
TTITLE1=利墨瑞克
TTITLE2=我要幸福
TTITLE3=尋找瘋狂
TTITLE4=翻越山嶺的晴朗天空
TTITLE5=卡克斯頓街
TTITLE6=藍色忘憂海
TTITLE7=夏日華爾滋
TTITLE8=蘆笛之舞
TTITLE9=來自伊帕內瑪的女孩
TTITLE10=水車
TTITLE11=丁香花開時
TTITLE12=法式華爾滋
TTITLE13=藍色多瑙河
TTITLE14=美麗瞬間
EXTD=
EXTT0=
EXTT1=
EXTT2=
EXTT3=
EXTT4=
EXTT5=
EXTT6=
EXTT7=
EXTT8=
EXTT9=
EXTT10=
EXTT11=
EXTT12=
EXTT13=
EXTT14=
PLAYORDER=
